<svg width="25" height="25" viewBox="0 0 25 25" fill="none" xmlns="http://www.w3.org/2000/svg">
<path d="M12.5 0C5.6075 0 0 5.6075 0 12.5C0 19.3925 5.6075 25 12.5 25C19.3925 25 25 19.3925 25 12.5C25 5.6075 19.3925 0 12.5 0ZM6.43939 14.3939C5.39508 14.3939 4.54545 13.5443 4.54545 12.5C4.54545 11.4557 5.39508 10.6061 6.43939 10.6061C7.48371 10.6061 8.33333 11.4557 8.33333 12.5C8.33333 13.5443 7.48371 14.3939 6.43939 14.3939ZM12.5 14.3939C11.4557 14.3939 10.6061 13.5443 10.6061 12.5C10.6061 11.4557 11.4557 10.6061 12.5 10.6061C13.5443 10.6061 14.3939 11.4557 14.3939 12.5C14.3939 13.5443 13.5443 14.3939 12.5 14.3939ZM18.5606 14.3939C17.5163 14.3939 16.6667 13.5443 16.6667 12.5C16.6667 11.4557 17.5163 10.6061 18.5606 10.6061C19.6049 10.6061 20.4545 11.4557 20.4545 12.5C20.4545 13.5443 19.6049 14.3939 18.5606 14.3939Z" fill="#D2D2D2"/>
</svg>
