<svg width="25" height="25" viewBox="0 0 25 25" fill="none" xmlns="http://www.w3.org/2000/svg">
<path d="M12.5 25C19.4 25 25 19.4 25 12.5C25 5.6 19.4 0 12.5 0C5.6 0 0 5.6 0 12.5C0 19.4 5.6 25 12.5 25ZM17.575 18.3917V18.3927C16.7344 18.3927 14.0792 15.4469 6.61667 16.976C6.41979 17.0271 6.1625 17.1073 6.01667 17.1073C5.06354 17.1073 4.88125 15.6812 5.90625 15.4635C10.0344 14.5521 14.2531 14.6323 17.851 16.7844C18.7094 17.3323 18.3448 18.3917 17.575 18.3917ZM18.9323 15.0865C18.8146 15.0552 18.849 15.1583 18.3104 14.875C15.1594 13.0104 10.4635 12.2583 6.28437 13.3927C6.04271 13.4583 5.91146 13.524 5.68437 13.524C4.56875 13.524 4.27292 11.8458 5.48854 11.5031C10.401 10.1229 15.6708 10.9281 19.3396 13.1104C19.7479 13.3521 19.9094 13.6656 19.9094 14.1031C19.9042 14.6469 19.4812 15.0865 18.9323 15.0865ZM4.7375 7.28958C9.44896 5.91042 16.5792 6.34583 21.0125 8.93333C22.149 9.58854 21.7021 11.2458 20.4937 11.2458L20.4927 11.2448C20.2302 11.2448 20.0688 11.1792 19.8417 11.0479C16.2552 8.90625 9.8375 8.39271 5.68542 9.55208C5.50313 9.60208 5.27604 9.68229 5.03438 9.68229C4.36875 9.68229 3.86042 9.1625 3.86042 8.49271C3.86042 7.80833 4.28437 7.42083 4.7375 7.28958Z" fill="#D2D2D2"/>
</svg>
