<svg width="25" height="25" viewBox="0 0 25 25" fill="none" xmlns="http://www.w3.org/2000/svg">
<path d="M10.2041 20.8774C10.1722 20.7924 10.1612 20.7201 10.172 20.6616C10.1828 20.6035 10.1457 20.5554 10.0605 20.5183C9.97534 20.4812 9.93284 20.4518 9.93284 20.4308C9.93284 20.4096 9.8718 20.3936 9.74945 20.3831C9.62715 20.3724 9.56611 20.367 9.56611 20.367H9.35893H9.18358H4.59173C3.89022 20.367 3.28961 20.1174 2.78998 19.6175C2.29045 19.1179 2.04071 18.5175 2.04071 17.8161V6.59151C2.04071 5.89 2.29039 5.28961 2.78998 4.79003C3.28961 4.29039 3.89022 4.04049 4.59173 4.04049H9.69372C9.83193 4.04049 9.9406 4.0062 10.0205 3.93696C10.1001 3.86788 10.1531 3.76417 10.1798 3.62602C10.2064 3.48786 10.2224 3.3631 10.2278 3.25147C10.2331 3.13995 10.2305 2.999 10.2198 2.82895C10.2092 2.65896 10.2039 2.55269 10.2039 2.50997C10.2039 2.37181 10.1534 2.25247 10.0525 2.15128C9.95144 2.05054 9.83193 2 9.69377 2H4.59173C3.32697 2 2.24538 2.4491 1.34713 3.34724C0.449099 4.24538 0 5.32681 0 6.59168V17.816C0 19.0808 0.449099 20.1625 1.34713 21.0603C2.24538 21.9589 3.32697 22.408 4.59173 22.408H9.69394C9.83215 22.408 9.94088 22.3732 10.0207 22.3044C10.1003 22.2353 10.1534 22.1317 10.1801 21.9933C10.2066 21.8554 10.2227 21.73 10.228 21.6188C10.2333 21.5072 10.2307 21.3665 10.22 21.1964C10.2093 21.0262 10.2041 20.92 10.2041 20.8774Z" fill="#D2D2D2"/>
<path d="M24.697 11.4866L16.0236 2.81291C15.8218 2.6112 15.5825 2.51001 15.3062 2.51001C15.0298 2.51001 14.7906 2.6112 14.5885 2.81291C14.3865 3.0149 14.2856 3.2543 14.2856 3.53051V8.12235H7.14281C6.86627 8.12235 6.6272 8.22354 6.42521 8.42525C6.22322 8.62724 6.12231 8.86648 6.12231 9.14285V15.2654C6.12231 15.5417 6.22322 15.7809 6.42521 15.9828C6.62743 16.1844 6.86644 16.2859 7.14281 16.2859H14.2857V20.8777C14.2857 21.1538 14.3866 21.3933 14.5886 21.5951C14.7906 21.7971 15.0298 21.8982 15.3062 21.8982C15.5825 21.8982 15.8218 21.7971 16.0237 21.5951L24.697 12.9218C24.899 12.7197 24.9999 12.4808 24.9999 12.2043C24.9999 11.928 24.899 11.6886 24.697 11.4866Z" fill="#D2D2D2"/>
</svg>
