<svg width="25" height="25" viewBox="0 0 25 25" fill="none" xmlns="http://www.w3.org/2000/svg">
<path d="M10.0098 6.34766C7.99048 6.34766 6.34766 7.99048 6.34766 10.0098C6.34766 12.0291 7.99048 13.6719 10.0098 13.6719C12.0291 13.6719 13.6719 12.0291 13.6719 10.0098C13.6719 7.99048 12.0291 6.34766 10.0098 6.34766ZM10.0098 11.4746C9.20073 11.4746 8.54492 10.8188 8.54492 10.0098C8.54492 9.20073 9.20073 8.54492 10.0098 8.54492C10.8188 8.54492 11.4746 9.20073 11.4746 10.0098C11.4746 10.8188 10.8188 11.4746 10.0098 11.4746Z" fill="#D2D2D2"/>
<path d="M24.7183 12.2157C24.5405 12.0769 24.3087 12.0277 24.0899 12.0824L16.2774 14.0356C15.9514 14.1171 15.7227 14.41 15.7227 14.7461V20.7315C15.4934 20.6502 15.247 20.6055 14.9902 20.6055C13.7787 20.6055 12.793 21.5912 12.793 22.8028C12.793 24.0143 13.7787 25 14.9902 25C16.2018 25 17.1875 24.0143 17.1875 22.8028V17.4927L23.5352 15.9058V19.7549C23.3059 19.6736 23.0595 19.6289 22.8027 19.6289C21.5912 19.6289 20.6055 20.6146 20.6055 21.8262C20.6055 23.0378 21.5912 24.0235 22.8027 24.0235C24.0143 24.0235 25 23.0378 25 21.8262V12.793C25 12.5675 24.8961 12.3545 24.7183 12.2157V12.2157Z" fill="#D2D2D2"/>
<path d="M15.9223 12.6145L19.8899 11.6226C19.9758 11.0926 20.0195 10.5542 20.0195 10.0098C20.0195 4.49038 15.5292 0 10.0098 0C4.49033 0 0 4.49038 0 10.0098C0 15.5292 4.49033 20.0195 10.0098 20.0195C11.4996 20.0195 12.9434 19.6924 14.2578 19.0752V14.7461C14.2578 13.7359 14.9423 12.8593 15.9223 12.6145ZM10.0098 15.1367C7.18276 15.1367 4.88281 12.8368 4.88281 10.0098C4.88281 7.18276 7.18276 4.88281 10.0098 4.88281C12.8368 4.88281 15.1367 7.18276 15.1367 10.0098C15.1367 12.8368 12.8368 15.1367 10.0098 15.1367V15.1367Z" fill="#D2D2D2"/>
</svg>
