<svg width="25" height="25" viewBox="0 0 25 25" fill="none" xmlns="http://www.w3.org/2000/svg">
<path fill-rule="evenodd" clip-rule="evenodd" d="M2.09429 8.06137C1.66675 8.99094 1.66675 10.0485 1.66675 12.1635V18.769C1.66675 21.7063 1.66675 23.175 2.57926 24.0875C3.46858 24.9768 4.88616 24.9994 7.67671 25V17.2114C7.67671 15.7988 8.82185 14.6536 10.2345 14.6536H14.9077C16.3203 14.6536 17.4655 15.7988 17.4655 17.2114V25C20.2559 24.9994 21.6735 24.9768 22.5628 24.0875C23.4753 23.175 23.4753 21.7063 23.4753 18.769V12.1635C23.4753 10.0485 23.4753 8.99094 23.0477 8.06137C22.6202 7.1318 21.8173 6.44357 20.2114 5.06711L18.6536 3.7319C15.7511 1.24397 14.2998 0 12.571 0C10.8423 0 9.39097 1.24397 6.48838 3.7319L4.93063 5.06711C3.32477 6.44357 2.52183 7.1318 2.09429 8.06137ZM15.4655 25V17.2114C15.4655 16.9033 15.2158 16.6536 14.9077 16.6536H10.2345C9.92642 16.6536 9.67671 16.9033 9.67671 17.2114V25H15.4655Z" fill="#D2D2D2"/>
</svg>
